<?xml version="1.0" encoding="UTF-8"?>
<svg width="136px" height="65px" viewBox="0 0 136 65" version="1.1" xmlns="http://www.w3.org/2000/svg" xmlns:xlink="http://www.w3.org/1999/xlink">
    <!-- Generator: Sketch 53.1 (72631) - https://sketchapp.com -->
    <title>Logo</title>
    <desc>Created with Sketch.</desc>
    <g id="Home" stroke="none" stroke-width="1" fill="none" fill-rule="evenodd">
        <g transform="translate(-63.000000, -44.000000)" fill-rule="nonzero" id="Nav">
            <g transform="translate(63.000000, 44.000000)">
                <g id="Logo">
                    <path d="M2.6436437,23.2829963 L2.6436437,5.40081294 L5.0973234,5.40081294 L5.0973234,7.50908172 L5.30739871,7.50908172 C5.4586537,7.2381382 5.6701274,6.92486444 5.94182617,6.56925106 C6.21352494,6.21363768 6.59445771,5.90177507 7.0846359,5.63365387 C7.57481409,5.36553267 8.21763813,5.23147408 9.01312731,5.23147408 C10.0551061,5.23147408 10.9836297,5.49676898 11.798726,6.02736672 C12.6138223,6.55796446 13.2566464,7.32280398 13.7272174,8.32190824 C14.1977885,9.3210125 14.4330705,10.5233064 14.4330705,11.9288259 C14.4330705,13.3287008 14.2005895,14.5324058 13.7356204,15.5399771 C13.2706514,16.5475483 12.6320288,17.3194435 11.8197335,17.8556859 C11.0074383,18.3919283 10.0803151,18.6600455 9.03833634,18.6600455 C8.25405124,18.6600455 7.61542866,18.5273981 7.12244945,18.2620992 C6.62947024,17.9968003 6.24153504,17.6863489 5.9586322,17.3307355 C5.67572936,16.9751221 5.4586537,16.6590261 5.30739871,16.3824379 L5.15614449,16.3824379 L5.15614449,23.2829963 L2.6436437,23.2829963 Z M5.10572641,11.9034251 C5.10572641,13.269432 5.39702794,14.3771793 5.97963973,15.2267002 C6.56225152,16.076221 7.39414146,16.5009751 8.47533449,16.5009751 C9.22600738,16.5009751 9.85482654,16.2991816 10.3618108,15.8955887 C10.8687951,15.4919957 11.2511284,14.9430611 11.5088221,14.2487683 C11.7665157,13.5544755 11.8953607,12.7727022 11.8953607,11.9034251 C11.8953607,11.0397926 11.7679162,10.2678973 11.5130236,9.5877162 C11.2581309,8.90753506 10.8785986,8.36988956 10.3744154,7.97476358 C9.87023208,7.5796376 9.23721145,7.38207758 8.47533449,7.38207758 C7.37733535,7.38207758 6.54124395,7.79554249 5.96703521,8.62248471 C5.39282647,9.44942694 5.10572641,10.5430628 5.10572641,11.9034251 Z M20.2470146,18.6939133 C19.4291173,18.6939133 18.6910601,18.5415098 18.0328208,18.2366984 C17.3745815,17.9318869 16.8521994,17.4845546 16.4656589,16.8946879 C16.0791184,16.3048213 15.885851,15.5837272 15.885851,14.731384 C15.885851,13.991934 16.0273003,13.3851425 16.3102032,12.9109913 C16.593106,12.4368401 16.9712378,12.0614761 17.4446099,11.7848879 C17.917982,11.5082997 18.448767,11.3008617 19.0369808,11.1625676 C19.6251946,11.0242735 20.2246035,10.9184378 20.8352255,10.8450572 C21.6083065,10.7547427 22.2343247,10.6799521 22.7132988,10.6206832 C23.192273,10.5614143 23.542395,10.4640455 23.7636754,10.3285737 C23.9849559,10.1931019 24.0955944,9.97296363 24.0955944,9.66815216 L24.0955944,9.60888356 C24.0955944,8.86943352 23.8897227,8.29650944 23.477973,7.89009415 C23.0662233,7.48367886 22.45421,7.28047426 21.6419147,7.28047426 C20.7960072,7.28047426 20.1307754,7.46674515 19.6461992,7.8392925 C19.1616231,8.21183985 18.8269064,8.62953818 18.6420392,9.09240004 L16.2807926,8.5505157 C16.7009454,7.36513777 17.4025899,6.51562966 18.3857473,6.00196589 C19.3689047,5.48830212 20.4430791,5.23147408 21.6083027,5.23147408 C22.12369,5.23147408 22.6698804,5.29215323 23.2468901,5.41351336 C23.8238999,5.53487348 24.3686898,5.75783408 24.8812761,6.08240185 C25.3938624,6.40696961 25.8112079,6.8655911 26.133325,7.45828007 C26.4554421,8.05096903 26.6164982,8.82145313 26.6164982,9.76975548 L26.6164982,18.4060372 L24.1628185,18.4060372 L24.1628185,16.6279792 L24.0619824,16.6279792 C23.8210948,17.1134197 23.3925454,17.5790969 22.7763214,18.0250248 C22.1600974,18.4709527 21.3170036,18.6939133 20.2470146,18.6939133 Z M20.7932104,16.661847 C21.493465,16.661847 22.0900729,16.523555 22.5830521,16.2469668 C23.0760313,15.9703786 23.4527627,15.6077148 23.7132573,15.1589646 C23.973752,14.7102144 24.1039974,14.2290146 24.1039974,13.7153509 L24.1039974,12.0388962 C23.9863547,12.157434 23.7286649,12.2618585 23.3309203,12.3521731 C22.9331757,12.4424876 22.5130292,12.5186893 22.0704684,12.5807805 C21.6279075,12.6428717 21.2693825,12.6936729 20.9948827,12.7331855 C20.266618,12.8291447 19.6434008,13.0224712 19.1252124,13.3131711 C18.6070241,13.6038709 18.3479338,14.087893 18.3479338,14.7652518 C18.3479338,15.3918087 18.5776138,15.8645416 19.0369808,16.1834647 C19.4963478,16.5023878 20.0817518,16.661847 20.7932104,16.661847 Z M35.2286456,5.40081294 L35.2286456,7.43287924 L32.5816966,7.43287924 L32.5816966,14.587446 C32.5816966,15.3212514 32.7371508,15.7939843 33.0480638,16.0056589 C33.3589768,16.2173335 33.7189023,16.3231693 34.1278509,16.3231693 C34.3295242,16.3231693 34.5059857,16.3090578 34.6572407,16.2808346 C34.8084957,16.2526113 34.9261367,16.230033 35.0101673,16.213099 L35.4639299,18.3044339 C35.318277,18.3608805 35.1096043,18.4187373 34.8379055,18.4780062 C34.5662067,18.5372751 34.2314901,18.5697314 33.8337455,18.5753761 C33.1727052,18.5866654 32.5550899,18.4681294 31.9808812,18.2197645 C31.4066724,17.9713996 30.9445114,17.5875687 30.5943841,17.0682602 C30.2442568,16.5489518 30.0691958,15.8970037 30.0691958,15.1123964 L30.0691958,7.43287924 L28.1785179,7.43287924 L28.1785179,5.40081294 L30.0691958,5.40081294 L30.0691958,2.28497796 L32.5816966,2.28497796 L32.5816966,5.40081294 L35.2286456,5.40081294 Z M37.244428,18.4060372 L37.244428,5.40081294 L39.6728986,5.40081294 L39.6728986,7.46674701 L39.8073469,7.46674701 C40.0426324,6.76680956 40.4585774,6.21505264 41.0551942,5.81145967 C41.6518111,5.40786671 42.3282469,5.20607326 43.0845218,5.20607326 C43.2469809,5.20607326 43.4346463,5.21171783 43.6475236,5.22300714 C43.860401,5.23429646 44.0284596,5.24840789 44.1517044,5.26534186 L44.1517044,7.68688752 C44.0508677,7.65866424 43.8730058,7.62620795 43.6181131,7.58951768 C43.3632204,7.55282741 43.1041301,7.53448255 42.8408344,7.53448255 C41.9501106,7.53448255 41.2134539,7.80965544 40.6308421,8.36000948 C40.0482303,8.91036352 39.7569288,9.61170161 39.7569288,10.4640448 L39.7569288,18.4060372 L37.244428,18.4060372 Z M45.5792759,18.4060372 L45.5792759,5.40081294 L48.0917767,5.40081294 L48.0917767,18.4060372 L45.5792759,18.4060372 Z M46.8481308,3.39414748 C46.411172,3.39414748 46.0372417,3.24597746 45.7263286,2.94963297 C45.4154156,2.65328849 45.2599614,2.29909159 45.2599614,1.88703164 C45.2599614,1.46932704 45.4154156,1.11230785 45.7263286,0.815963366 C46.0372417,0.519618883 46.411172,0.371448864 46.8481308,0.371448864 C47.2794876,0.371448864 47.6520175,0.519618883 47.9657315,0.815963366 C48.2794456,1.11230785 48.4363002,1.46932704 48.4363002,1.88703164 C48.4363002,2.29909159 48.2794456,2.65328849 47.9657315,2.94963297 C47.6520175,3.24597746 47.2794876,3.39414748 46.8481308,3.39414748 Z M56.1493252,18.6685125 C54.9000711,18.6685125 53.8258967,18.3820504 52.9267699,17.8091178 C52.027643,17.2361851 51.3372024,16.4445338 50.8554272,15.4341403 C50.3736521,14.4237467 50.1327682,13.2666094 50.1327682,11.9626937 C50.1327682,10.6361993 50.3792541,9.4677729 50.8722333,8.45737933 C51.3652125,7.44698576 52.0612551,6.65674566 52.9603819,6.08663532 C53.8595088,5.51652498 54.9140763,5.23147408 56.1241162,5.23147408 C57.1044726,5.23147408 57.9783772,5.41351154 58.7458561,5.7775919 C59.5133351,6.14167227 60.1337514,6.6510949 60.6071235,7.30587509 C61.0804955,7.96065528 61.3619936,8.72549481 61.4516262,9.60041662 L59.0063495,9.60041662 C58.8719007,8.99079368 58.5651938,8.46584847 58.0862197,8.02556524 C57.6072455,7.58528201 56.9672225,7.36514369 56.1661313,7.36514369 C55.1185504,7.36514369 54.2740561,7.77296403 53.6326229,8.58861694 C52.9911898,9.40426985 52.670478,10.5091948 52.670478,11.9034251 C52.670478,13.3202339 52.9869883,14.4449149 53.6200184,15.2775018 C54.2530485,16.1100887 55.1017443,16.5263759 56.1661313,16.5263759 C56.8831919,16.5263759 57.4966057,16.3288159 58.006391,15.9336899 C58.5161763,15.5385639 58.8494925,14.9910404 59.0063495,14.291103 L61.4516262,14.291103 C61.3619936,15.1321568 61.090299,15.8828849 60.636534,16.5433098 C60.182769,17.2037346 59.5763577,17.7230353 58.8172818,18.1012273 C58.0582058,18.4794193 57.1688959,18.6685125 56.1493252,18.6685125 Z M63.3917815,18.4060372 L63.3917815,5.40081294 L65.9042823,5.40081294 L65.9042823,18.4060372 L63.3917815,18.4060372 Z M64.6606364,3.39414748 C64.2236776,3.39414748 63.8497473,3.24597746 63.5388342,2.94963297 C63.2279212,2.65328849 63.072467,2.29909159 63.072467,1.88703164 C63.072467,1.46932704 63.2279212,1.11230785 63.5388342,0.815963366 C63.8497473,0.519618883 64.2236776,0.371448864 64.6606364,0.371448864 C65.0919932,0.371448864 65.4645231,0.519618883 65.7782371,0.815963366 C66.0919512,1.11230785 66.2488058,1.46932704 66.2488058,1.88703164 C66.2488058,2.29909159 66.0919512,2.65328849 65.7782371,2.94963297 C65.4645231,3.24597746 65.0919932,3.39414748 64.6606364,3.39414748 Z M73.9618308,18.6685125 C72.751791,18.6685125 71.6958229,18.3891061 70.793895,17.8302851 C69.8919672,17.2714641 69.1917231,16.4882797 68.6931419,15.4807085 C68.1945606,14.4731372 67.9452738,13.3004774 67.9452738,11.9626937 C67.9452738,10.6136207 68.1945606,9.43390513 68.6931419,8.42351156 C69.1917231,7.41311798 69.8919672,6.62852246 70.793895,6.06970143 C71.6958229,5.51088041 72.751791,5.23147408 73.9618308,5.23147408 C75.1774727,5.23147408 76.2348413,5.51088041 77.1339681,6.06970143 C78.033095,6.62852246 78.7319385,7.41311798 79.2305198,8.42351156 C79.729101,9.43390513 79.9783879,10.6136207 79.9783879,11.9626937 C79.9783879,13.3004774 79.729101,14.4731372 79.2305198,15.4807085 C78.7319385,16.4882797 78.033095,17.2714641 77.1339681,17.8302851 C76.2348413,18.3891061 75.1774727,18.6685125 73.9618308,18.6685125 Z M73.9702338,16.5433098 C74.760121,16.5433098 75.411348,16.3344606 75.9239343,15.916756 C76.4365206,15.4990514 76.8174534,14.9416499 77.066744,14.2445348 C77.3160346,13.5474197 77.4406781,12.7839913 77.4406781,11.9542267 C77.4406781,11.1244622 77.3160346,10.3596227 77.066744,9.65968522 C76.8174534,8.95974777 76.4365206,8.39952399 75.9239343,7.97899705 C75.411348,7.55847012 74.760121,7.34820981 73.9702338,7.34820981 C73.1803467,7.34820981 72.5277192,7.55847012 72.0123319,7.97899705 C71.4969445,8.39952399 71.1132108,8.95974777 70.8611191,9.65968522 C70.6090275,10.3596227 70.4829836,11.1244622 70.4829836,11.9542267 C70.4829836,12.7839913 70.6090275,13.5474197 70.8611191,14.2445348 C71.1132108,14.9416499 71.4969445,15.4990514 72.0123319,15.916756 C72.5277192,16.3344606 73.1803467,16.5433098 73.9702338,16.5433098 Z M8.82826103,29.2437241 L8.82826103,31.2757904 L6.04686383,31.2757904 L6.04686383,42.2489484 L3.52596003,42.2489484 L3.52596003,31.2757904 L1.53444602,31.2757904 L1.53444602,29.2437241 L3.52596003,29.2437241 L3.52596003,27.7366083 C3.52596003,26.9237777 3.70382202,26.2478402 4.05955133,25.7087755 C4.41528065,25.1697107 4.88444416,24.7661238 5.46705596,24.4980026 C6.04966775,24.2298814 6.6798874,24.0958229 7.35773381,24.0958229 C7.86751913,24.0958229 8.30167044,24.136746 8.66020077,24.2185935 C9.01873111,24.300441 9.28482385,24.3752316 9.45848698,24.4429675 L8.87027609,26.4919677 C8.75263332,26.4524551 8.60138061,26.4101208 8.41651341,26.3649635 C8.2316462,26.3198063 8.00756811,26.297228 7.74427239,26.297228 C7.13365042,26.297228 6.69809862,26.4496315 6.43760392,26.7544429 C6.17710922,27.0592544 6.04686383,27.499531 6.04686383,28.075286 L6.04686383,29.2437241 L8.82826103,29.2437241 Z M15.7093878,42.5114236 C14.4433275,42.5114236 13.3509468,42.2348396 12.4322128,41.6816632 C11.5134788,41.1284869 10.8062324,40.3509471 10.3104521,39.3490205 C9.8146719,38.3470939 9.5667855,37.174434 9.5667855,35.8310057 C9.5667855,34.4988667 9.8146719,33.3247957 10.3104521,32.3087575 C10.8062324,31.2927192 11.5008745,30.4996568 12.3943993,29.9295465 C13.2879241,29.3594362 14.3340887,29.0743853 15.5329245,29.0743853 C16.5076788,29.0743853 17.4306005,29.2931124 18.3017172,29.7305733 C19.1728339,30.1680342 19.8814808,30.8651389 20.4276794,31.8219082 C20.9738779,32.7786776 21.2469731,34.0416506 21.2469731,35.6108652 L21.2469731,36.5083611 L12.0708833,36.5083611 C12.1044955,37.7614749 12.4546175,38.7266968 13.1212599,39.4040556 C13.7879022,40.0814144 14.6590058,40.4200887 15.7345968,40.4200887 C16.4516575,40.4200887 17.0706732,40.264863 17.5916626,39.9544069 C18.112652,39.6439508 18.4851818,39.1810958 18.7092633,38.5658283 L21.0873159,38.9976423 C20.801612,40.0531932 20.1853973,40.9027013 19.2386531,41.5461922 C18.2919089,42.189683 17.1154989,42.5114236 15.7093878,42.5114236 Z M12.0792863,34.6117659 L18.7848904,34.6117659 C18.7792884,33.6183063 18.4823849,32.7956099 17.8941711,32.1436521 C17.3059572,31.4916942 16.5244849,31.1657202 15.5497305,31.1657202 C14.8718841,31.1657202 14.2794776,31.3251793 13.7724933,31.6441024 C13.265509,31.9630255 12.8649694,32.3835462 12.5708625,32.9056769 C12.2767556,33.4278077 12.1128985,33.9964983 12.0792863,34.6117659 Z M23.2879646,42.2489484 L23.2879646,29.2437241 L25.7164352,29.2437241 L25.7164352,31.3096582 L25.8508834,31.3096582 C26.086169,30.6097207 26.5021139,30.0579638 27.0987308,29.6543709 C27.6953477,29.2507779 28.3717835,29.0489844 29.1280584,29.0489844 C29.2905174,29.0489844 29.4781828,29.054629 29.6910602,29.0659183 C29.9039376,29.0772076 30.0719962,29.0913191 30.195241,29.108253 L30.195241,31.5297987 C30.0944043,31.5015754 29.9165423,31.4691191 29.6616497,31.4324289 C29.406757,31.3957386 29.1476667,31.3773937 28.884371,31.3773937 C27.9936472,31.3773937 27.2569905,31.6525666 26.6743787,32.2029207 C26.0917669,32.7532747 25.8004654,33.4546128 25.8004654,34.306956 L25.8004654,42.2489484 L23.2879646,42.2489484 Z M31.6228125,42.2489484 L31.6228125,29.2437241 L34.0512832,29.2437241 L34.0512832,31.3096582 L34.1857314,31.3096582 C34.4210169,30.6097207 34.8369619,30.0579638 35.4335788,29.6543709 C36.0301956,29.2507779 36.7066314,29.0489844 37.4629063,29.0489844 C37.6253654,29.0489844 37.8130308,29.054629 38.0259082,29.0659183 C38.2387855,29.0772076 38.4068441,29.0913191 38.5300889,29.108253 L38.5300889,31.5297987 C38.4292523,31.5015754 38.2513903,31.4691191 37.9964976,31.4324289 C37.741605,31.3957386 37.4825147,31.3773937 37.2192189,31.3773937 C36.3284951,31.3773937 35.5918384,31.6525666 35.0092266,32.2029207 C34.4266148,32.7532747 34.1353133,33.4546128 34.1353133,34.306956 L34.1353133,42.2489484 L31.6228125,42.2489484 Z M43.5961649,42.5368245 C42.7782676,42.5368245 42.0402104,42.384421 41.3819711,42.0796096 C40.7237318,41.7747981 40.2013497,41.3274657 39.8148092,40.7375991 C39.4282687,40.1477325 39.2350013,39.4266384 39.2350013,38.5742952 C39.2350013,37.8348452 39.3764506,37.2280536 39.6593535,36.7539025 C39.9422563,36.2797513 40.3203881,35.9043873 40.7937602,35.6277991 C41.2671323,35.3512109 41.7979173,35.1437729 42.3861311,35.0054788 C42.9743449,34.8671847 43.5737538,34.7613489 44.1843758,34.6879684 C44.9574568,34.5976539 45.583475,34.5228633 46.0624491,34.4635944 C46.5414233,34.4043255 46.8915453,34.3069567 47.1128257,34.1714849 C47.3341062,34.0360131 47.4447447,33.8158748 47.4447447,33.5110633 L47.4447447,33.4517947 C47.4447447,32.7123447 47.238873,32.1394206 46.8271233,31.7330053 C46.4153736,31.32659 45.8033603,31.1233855 44.991065,31.1233855 C44.1451575,31.1233855 43.4799257,31.3096563 42.9953495,31.6822037 C42.5107734,32.054751 42.1760567,32.4724494 41.9911895,32.9353112 L39.6299429,32.3934269 C40.0500957,31.208049 40.7517402,30.3585408 41.7348976,29.8448771 C42.718055,29.3312133 43.7922294,29.0743853 44.957453,29.0743853 C45.4728403,29.0743853 46.0190307,29.1350644 46.5960405,29.2564245 C47.1730502,29.3777847 47.7178401,29.6007453 48.2304264,29.925313 C48.7430128,30.2498808 49.1603582,30.7085023 49.4824753,31.3011913 C49.8045924,31.8938802 49.9656485,32.6643643 49.9656485,33.6126667 L49.9656485,42.2489484 L47.5119688,42.2489484 L47.5119688,40.4708904 L47.4111327,40.4708904 C47.1702451,40.9563309 46.7416958,41.4220081 46.1254717,41.867936 C45.5092477,42.3138639 44.6661539,42.5368245 43.5961649,42.5368245 Z M44.1423608,40.5047582 C44.8426153,40.5047582 45.4392232,40.3664662 45.9322025,40.089878 C46.4251817,39.8132898 46.801913,39.450626 47.0624077,39.0018758 C47.3229024,38.5531256 47.4531477,38.0719258 47.4531477,37.5582621 L47.4531477,35.8818074 C47.335505,36.0003452 47.0778152,36.1047697 46.6800706,36.1950842 C46.282326,36.2853988 45.8621796,36.3616005 45.4196187,36.4236917 C44.9770578,36.4857829 44.6185328,36.5365841 44.3440331,36.5760967 C43.6157683,36.6720558 42.9925511,36.8653824 42.4743627,37.1560823 C41.9561744,37.4467821 41.6970841,37.9308042 41.6970841,38.608163 C41.6970841,39.2347199 41.9267641,39.7074528 42.3861311,40.0263759 C42.8454981,40.345299 43.4309021,40.5047582 44.1423608,40.5047582 Z M57.964376,47.3714489 C56.4238159,47.3714489 55.2095928,47.0807534 54.32167,46.4993537 C53.4337472,45.9179541 52.8189329,45.2349609 52.4772087,44.4503536 L54.6367829,43.5528576 C54.7880379,43.7899332 54.9911087,44.0467612 55.2460014,44.3233494 C55.500894,44.5999376 55.8482151,44.8370096 56.2879749,45.0345726 C56.7277348,45.2321356 57.2949325,45.3309156 57.989585,45.3309156 C58.9419312,45.3309156 59.7290055,45.0994882 60.3508316,44.6366263 C60.9726576,44.1737645 61.283566,43.4399701 61.283566,42.4352212 L61.283566,39.8782044 L61.1239087,39.8782044 C60.9726538,40.1547926 60.7569786,40.4624218 60.4768768,40.8011012 C60.1967749,41.1397806 59.8088397,41.4332983 59.3130595,41.6816632 C58.8172793,41.9300281 58.1744552,42.0542087 57.3845681,42.0542087 C56.3705995,42.0542087 55.4560808,41.8129033 54.6409845,41.3302851 C53.8258881,40.847667 53.1802631,40.1336286 52.70409,39.1881486 C52.2279169,38.2426685 51.989834,37.0784755 51.989834,35.6955346 C51.989834,34.3125937 52.2237155,33.1272335 52.6914855,32.1394186 C53.1592556,31.1516037 53.8020796,30.3938198 54.6199769,29.8660444 C55.4378742,29.338269 56.3649974,29.0743853 57.4013741,29.0743853 C58.2024653,29.0743853 58.8508913,29.2084439 59.3466716,29.4765651 C59.8424518,29.7446863 60.2289865,30.0565489 60.5062873,30.4121622 C60.7835881,30.7677756 60.9950618,31.0810494 61.1407148,31.3519929 L61.325581,31.3519929 L61.325581,29.2437241 L63.7876638,29.2437241 L63.7876638,42.5368245 C63.7876638,43.6431772 63.5299739,44.5533645 63.0145866,45.2674136 C62.4991992,45.9814626 61.8031566,46.5106413 60.9264379,46.8549653 C60.0497192,47.1992894 59.0623751,47.3714489 57.964376,47.3714489 Z M57.9391669,39.9544069 C59.025962,39.9544069 59.8592524,39.5748094 60.4390632,38.8156031 C61.018874,38.0563967 61.308775,37.0050952 61.308775,35.6616668 C61.308775,34.3464618 61.021675,33.2782265 60.4474662,32.456929 C59.8732575,31.6356314 59.0371661,31.2249888 57.9391669,31.2249888 C57.182892,31.2249888 56.5526724,31.4211376 56.0484891,31.8134413 C55.5443058,32.2057449 55.1647735,32.7363347 54.9098809,33.4052266 C54.6549882,34.0741184 54.5275438,34.8262576 54.5275438,35.6616668 C54.5275438,36.9373593 54.8160443,37.9717271 55.3930541,38.7648014 C55.9700638,39.5578757 56.8187596,39.9544069 57.9391669,39.9544069 Z M71.8116002,47.3714489 C70.2710402,47.3714489 69.056817,47.0807534 68.1688942,46.4993537 C67.2809714,45.9179541 66.6661572,45.2349609 66.3244329,44.4503536 L68.4840072,43.5528576 C68.6352622,43.7899332 68.838333,44.0467612 69.0932256,44.3233494 C69.3481183,44.5999376 69.6954393,44.8370096 70.1351992,45.0345726 C70.5749591,45.2321356 71.1421567,45.3309156 71.8368093,45.3309156 C72.7891555,45.3309156 73.5762298,45.0994882 74.1980558,44.6366263 C74.8198819,44.1737645 75.1307902,43.4399701 75.1307902,42.4352212 L75.1307902,39.8782044 L74.971133,39.8782044 C74.819878,40.1547926 74.6042028,40.4624218 74.324101,40.8011012 C74.0439992,41.1397806 73.656064,41.4332983 73.1602838,41.6816632 C72.6645035,41.9300281 72.0216795,42.0542087 71.2317923,42.0542087 C70.2178237,42.0542087 69.303305,41.8129033 68.4882087,41.3302851 C67.6731124,40.847667 67.0274874,40.1336286 66.5513143,39.1881486 C66.0751412,38.2426685 65.8370582,37.0784755 65.8370582,35.6955346 C65.8370582,34.3125937 66.0709397,33.1272335 66.5387098,32.1394186 C67.0064798,31.1516037 67.6493039,30.3938198 68.4672012,29.8660444 C69.2850985,29.338269 70.2122216,29.0743853 71.2485984,29.0743853 C72.0496896,29.0743853 72.6981156,29.2084439 73.1938958,29.4765651 C73.689676,29.7446863 74.0762108,30.0565489 74.3535116,30.4121622 C74.6308124,30.7677756 74.8422861,31.0810494 74.987939,31.3519929 L75.1728053,31.3519929 L75.1728053,29.2437241 L77.634888,29.2437241 L77.634888,42.5368245 C77.634888,43.6431772 77.3771982,44.5533645 76.8618108,45.2674136 C76.3464235,45.9814626 75.6503809,46.5106413 74.7736622,46.8549653 C73.8969435,47.1992894 72.9095994,47.3714489 71.8116002,47.3714489 Z M71.7863912,39.9544069 C72.8731863,39.9544069 73.7064767,39.5748094 74.2862875,38.8156031 C74.8660982,38.0563967 75.1559993,37.0050952 75.1559993,35.6616668 C75.1559993,34.3464618 74.8688992,33.2782265 74.2946905,32.456929 C73.7204817,31.6356314 72.8843903,31.2249888 71.7863912,31.2249888 C71.0301163,31.2249888 70.3998966,31.4211376 69.8957133,31.8134413 C69.39153,32.2057449 69.0119978,32.7363347 68.7571051,33.4052266 C68.5022125,34.0741184 68.374768,34.8262576 68.374768,35.6616668 C68.374768,36.9373593 68.6632686,37.9717271 69.2402783,38.7648014 C69.8172881,39.5578757 70.6659839,39.9544069 71.7863912,39.9544069 Z M80.2472843,42.2489484 L80.2472843,29.2437241 L82.7597851,29.2437241 L82.7597851,42.2489484 L80.2472843,42.2489484 Z M81.5161392,27.2370587 C81.0791804,27.2370587 80.7052501,27.0888886 80.394337,26.7925442 C80.083424,26.4961997 79.9279698,26.1420028 79.9279698,25.7299428 C79.9279698,25.3122382 80.083424,24.955219 80.394337,24.6588746 C80.7052501,24.3625301 81.0791804,24.2143601 81.5161392,24.2143601 C81.947496,24.2143601 82.3200259,24.3625301 82.6337399,24.6588746 C82.947454,24.955219 83.1043086,25.3122382 83.1043086,25.7299428 C83.1043086,26.1420028 82.947454,26.4961997 82.6337399,26.7925442 C82.3200259,27.0888886 81.947496,27.2370587 81.5161392,27.2370587 Z M94.6481668,42.5368245 C93.8302694,42.5368245 93.0922122,42.384421 92.4339729,42.0796096 C91.7757336,41.7747981 91.2533516,41.3274657 90.8668111,40.7375991 C90.4802705,40.1477325 90.2870032,39.4266384 90.2870032,38.5742952 C90.2870032,37.8348452 90.4284525,37.2280536 90.7113553,36.7539025 C90.9942582,36.2797513 91.37239,35.9043873 91.845762,35.6277991 C92.3191341,35.3512109 92.8499191,35.1437729 93.4381329,35.0054788 C94.0263468,34.8671847 94.6257557,34.7613489 95.2363776,34.6879684 C96.0094587,34.5976539 96.6354769,34.5228633 97.114451,34.4635944 C97.5934251,34.4043255 97.9435471,34.3069567 98.1648276,34.1714849 C98.386108,34.0360131 98.4967466,33.8158748 98.4967466,33.5110633 L98.4967466,33.4517947 C98.4967466,32.7123447 98.2908748,32.1394206 97.8791251,31.7330053 C97.4673755,31.32659 96.8553622,31.1233855 96.0430669,31.1233855 C95.1971594,31.1233855 94.5319275,31.3096563 94.0473514,31.6822037 C93.5627752,32.054751 93.2280585,32.4724494 93.0431913,32.9353112 L90.6819448,32.3934269 C91.1020975,31.208049 91.8037421,30.3585408 92.7868995,29.8448771 C93.7700569,29.3312133 94.8442312,29.0743853 96.0094548,29.0743853 C96.5248422,29.0743853 97.0710325,29.1350644 97.6480423,29.2564245 C98.225052,29.3777847 98.7698419,29.6007453 99.2824283,29.925313 C99.7950146,30.2498808 100.21236,30.7085023 100.534477,31.3011913 C100.856594,31.8938802 101.01765,32.6643643 101.01765,33.6126667 L101.01765,42.2489484 L98.5639707,42.2489484 L98.5639707,40.4708904 L98.4631345,40.4708904 C98.2222469,40.9563309 97.7936976,41.4220081 97.1774736,41.867936 C96.5612496,42.3138639 95.7181557,42.5368245 94.6481668,42.5368245 Z M95.1943626,40.5047582 C95.8946171,40.5047582 96.4912251,40.3664662 96.9842043,40.089878 C97.4771835,39.8132898 97.8539148,39.450626 98.1144095,39.0018758 C98.3749042,38.5531256 98.5051496,38.0719258 98.5051496,37.5582621 L98.5051496,35.8818074 C98.3875068,36.0003452 98.129817,36.1047697 97.7320724,36.1950842 C97.3343278,36.2853988 96.9141814,36.3616005 96.4716205,36.4236917 C96.0290596,36.4857829 95.6705347,36.5365841 95.3960349,36.5760967 C94.6677701,36.6720558 94.0445529,36.8653824 93.5263646,37.1560823 C93.0081762,37.4467821 92.7490859,37.9308042 92.7490859,38.608163 C92.7490859,39.2347199 92.9787659,39.7074528 93.4381329,40.0263759 C93.8974999,40.345299 94.482904,40.5047582 95.1943626,40.5047582 Z M103.604838,42.2489484 L103.604838,29.2437241 L106.033308,29.2437241 L106.033308,31.3096582 L106.167757,31.3096582 C106.403042,30.6097207 106.818987,30.0579638 107.415604,29.6543709 C108.012221,29.2507779 108.688657,29.0489844 109.444931,29.0489844 C109.607391,29.0489844 109.795056,29.054629 110.007933,29.0659183 C110.220811,29.0772076 110.388869,29.0913191 110.512114,29.108253 L110.512114,31.5297987 C110.411277,31.5015754 110.233415,31.4691191 109.978523,31.4324289 C109.72363,31.3957386 109.46454,31.3773937 109.201244,31.3773937 C108.31052,31.3773937 107.573864,31.6525666 106.991252,32.2029207 C106.40864,32.7532747 106.117338,33.4546128 106.117338,34.306956 L106.117338,42.2489484 L103.604838,42.2489484 Z M117.031911,42.5114236 C115.765851,42.5114236 114.67347,42.2348396 113.754736,41.6816632 C112.836002,41.1284869 112.128756,40.3509471 111.632976,39.3490205 C111.137195,38.3470939 110.889309,37.174434 110.889309,35.8310057 C110.889309,34.4988667 111.137195,33.3247957 111.632976,32.3087575 C112.128756,31.2927192 112.823398,30.4996568 113.716923,29.9295465 C114.610448,29.3594362 115.656612,29.0743853 116.855448,29.0743853 C117.830202,29.0743853 118.753124,29.2931124 119.624241,29.7305733 C120.495357,30.1680342 121.204004,30.8651389 121.750203,31.8219082 C122.296401,32.7786776 122.569497,34.0416506 122.569497,35.6108652 L122.569497,36.5083611 L113.393407,36.5083611 C113.427019,37.7614749 113.777141,38.7266968 114.443783,39.4040556 C115.110426,40.0814144 115.981529,40.4200887 117.05712,40.4200887 C117.774181,40.4200887 118.393197,40.264863 118.914186,39.9544069 C119.435175,39.6439508 119.807705,39.1810958 120.031787,38.5658283 L122.409839,38.9976423 C122.124136,40.0531932 121.507921,40.9027013 120.561177,41.5461922 C119.614432,42.189683 118.438022,42.5114236 117.031911,42.5114236 Z M113.40181,34.6117659 L120.107414,34.6117659 C120.101812,33.6183063 119.804908,32.7956099 119.216695,32.1436521 C118.628481,31.4916942 117.847008,31.1657202 116.872254,31.1657202 C116.194408,31.1657202 115.602001,31.3251793 115.095017,31.6441024 C114.588033,31.9630255 114.187493,32.3835462 113.893386,32.9056769 C113.599279,33.4278077 113.435422,33.9964983 113.40181,34.6117659 Z M134.282356,32.4188277 L132.005139,32.825241 C131.859486,32.3906024 131.589192,31.9912489 131.194248,31.6271686 C130.799305,31.2630882 130.209699,31.0810507 129.425414,31.0810507 C128.713956,31.0810507 128.118748,31.2405099 127.639774,31.559433 C127.1608,31.8783561 126.924118,32.2889987 126.92972,32.7913732 C126.924118,33.2316564 127.082373,33.583031 127.40449,33.8455076 C127.726607,34.1079841 128.243387,34.323889 128.954846,34.4932287 L131.005181,34.9673775 C133.358036,35.5149092 134.534446,36.6889802 134.534446,38.4896258 C134.534446,39.2742331 134.311768,39.9685154 133.866407,40.5724937 C133.421045,41.176472 132.802029,41.6506161 132.009341,41.9949401 C131.216653,42.3392642 130.299333,42.5114236 129.257354,42.5114236 C127.806427,42.5114236 126.627216,42.199561 125.719686,41.5758265 C124.812156,40.9520919 124.251961,40.0644829 124.039083,38.9129729 L126.467554,38.5404274 C126.770064,39.8274092 127.694386,40.4708904 129.240548,40.4708904 C130.064047,40.4708904 130.722277,40.2973198 131.215256,39.9501734 C131.708235,39.603027 131.954721,39.178273 131.954721,38.6758985 C131.954721,37.846134 131.346909,37.2957882 130.131267,37.0248446 L127.946484,36.5422289 C126.736444,36.2712854 125.845734,35.8310087 125.274326,35.2213858 C124.702918,34.6117629 124.417219,33.8469233 124.417219,32.9268443 C124.417219,32.159171 124.630093,31.4860557 125.055848,30.9074784 C125.481602,30.3289011 126.069807,29.8787465 126.82048,29.557001 C127.571153,29.2352556 128.431053,29.0743853 129.400205,29.0743853 C130.795112,29.0743853 131.893095,29.3791922 132.694186,29.9888151 C133.495277,30.598438 134.024662,31.4084341 134.282356,32.4188277 Z" id="patricioferraggiares" fill="#FFFFFF"></path>
                    <path d="M7.8748698,51.3962423 L7.8748698,53.3797133 L5.07569898,53.3797133 L5.07569898,64.0904571 L2.53868615,64.0904571 L2.53868615,53.3797133 L0.534446023,53.3797133 L0.534446023,51.3962423 L2.53868615,51.3962423 L2.53868615,49.9251679 C2.53868615,49.1317755 2.71768471,48.4720025 3.0756872,47.945829 C3.43368969,47.4196556 3.90585124,47.0257201 4.49218603,46.7640108 C5.07852081,46.5023015 5.71276768,46.3714489 6.39494565,46.3714489 C6.90798858,46.3714489 7.3449142,46.4113934 7.70573561,46.4912836 C8.06655701,46.5711738 8.33435013,46.6441758 8.509123,46.7102918 L7.91715334,48.7102918 C7.79875882,48.6717242 7.64653957,48.6304023 7.46049103,48.5863249 C7.2744425,48.5422475 7.0489325,48.5202092 6.78395428,48.5202092 C6.16943032,48.5202092 5.73109527,48.668968 5.46893597,48.9664902 C5.20677666,49.2640123 5.07569898,49.6937601 5.07569898,50.2557464 L5.07569898,51.3962423 L7.8748698,51.3962423 Z M17.9458636,58.8259943 L17.9458636,51.3962423 L20.4828764,51.3962423 L20.4828764,64.0904571 L17.9966038,64.0904571 L17.9966038,61.89211 L17.8612965,61.89211 C17.5624912,62.5697994 17.0846919,63.1331546 16.4278842,63.5821927 C15.7710765,64.0312307 14.9550122,64.2557464 13.9796668,64.2557464 C12.7337054,64.2557464 11.7118633,63.8521692 10.9141097,63.0450026 C10.1163561,62.237836 9.7174853,61.0463879 9.7174853,59.4706224 L9.7174853,51.3962423 L12.2460414,51.3962423 L12.2460414,59.1731018 C12.2460414,60.0381199 12.4912835,60.7268182 12.9817751,61.2392175 C13.4722667,61.7516167 14.1093325,62.0078125 14.8929915,62.0078125 C15.3665696,62.0078125 15.8387311,61.8921112 16.3094903,61.6607051 C16.7802495,61.4292989 17.1720731,61.0780628 17.4849729,60.6069861 C17.7978727,60.1359093 17.9515014,59.5422513 17.9458636,58.8259943 Z M25.640522,47.1648373 L25.640522,64.0904571 L23.1119659,64.0904571 L23.1119659,47.1648373 L25.640522,47.1648373 Z M30.8066243,47.1648373 L30.8066243,64.0904571 L28.2780682,64.0904571 L28.2780682,47.1648373 L30.8066243,47.1648373 Z M43.177843,54.4954158 L40.8860747,54.89211 C40.7394911,54.4678655 40.4674696,54.0780622 40.0700023,53.7226885 C39.672535,53.3673149 39.0791618,53.1896307 38.289865,53.1896307 C37.57386,53.1896307 36.9748491,53.3452765 36.4928142,53.6565728 C36.0107794,53.9678692 35.7725844,54.3686916 35.7782223,54.8590522 C35.7725844,55.2888064 35.9318509,55.6317782 36.2560263,55.8879778 C36.5802018,56.1441774 37.1002843,56.3549191 37.8162892,56.5202092 L39.8797263,56.9830191 C42.2476168,57.517457 43.4315443,58.6634511 43.4315443,60.4210356 C43.4315443,61.1868797 43.2074437,61.8645589 42.7592359,62.4540935 C42.311028,63.0436281 41.6880567,63.5064334 40.8903031,63.8425232 C40.0925495,64.1786131 39.169368,64.3466555 38.1207308,64.3466555 C36.6605316,64.3466555 35.4737853,64.0422508 34.5604561,63.4334323 C33.6471269,62.8246139 33.0833519,61.9582313 32.8691142,60.8342588 L35.3131032,60.4706224 C35.6175463,61.726827 36.547775,62.3549199 38.1038173,62.3549199 C38.932579,62.3549199 39.5950146,62.1855001 40.0911441,61.8466555 C40.5872735,61.5078108 40.8353345,61.0932144 40.8353345,60.6028538 C40.8353345,59.7929324 40.2236386,59.2557477 39.0002285,58.9912836 L36.8014841,58.5202092 C35.5837119,58.2557451 34.6873096,57.8259973 34.1122505,57.230953 C33.5371914,56.6359087 33.2496661,55.8893597 33.2496661,54.9912836 C33.2496661,54.2419685 33.4639006,53.5849503 33.8923761,53.0202092 C34.3208515,52.4554681 34.9128152,52.0160785 35.668285,51.7020274 C36.4237549,51.3879762 37.2891495,51.230953 38.2644948,51.230953 C39.6683156,51.230953 40.7733146,51.5284707 41.5795249,52.123515 C42.3857352,52.7185593 42.9185026,53.509185 43.177843,54.4954158 Z M51.5067546,51.3962423 L51.5067546,53.3797133 L48.8428912,53.3797133 L48.8428912,60.3631844 C48.8428912,61.0794414 48.9993387,61.5408693 49.3122385,61.7474819 C49.6251383,61.9540945 49.9873638,62.0573993 50.3989257,62.0573993 C50.6018877,62.0573993 50.7794769,62.0436253 50.9316984,62.016077 C51.0839199,61.9885286 51.2023127,61.9664903 51.2868802,61.9499613 L51.7435425,63.9912836 C51.5969588,64.0463803 51.3869526,64.1028535 51.1135176,64.1607051 C50.8400827,64.2185566 50.5032271,64.2502367 50.1029409,64.2557464 C49.4376764,64.2667657 48.8161145,64.1510644 48.2382364,63.9086389 C47.6603584,63.6662135 47.195244,63.2915616 46.8428794,62.784672 C46.4905147,62.2777824 46.314335,61.6414251 46.314335,60.8755811 L46.314335,53.3797133 L44.4115754,53.3797133 L44.4115754,51.3962423 L46.314335,51.3962423 L46.314335,48.3549199 L48.8428912,48.3549199 L48.8428912,51.3962423 L51.5067546,51.3962423 Z M57.3155668,64.3714489 C56.492443,64.3714489 55.7496695,64.22269 55.0872239,63.9251679 C54.4247784,63.6276457 53.8990582,63.191011 53.5100476,62.6152505 C53.121037,62.0394901 52.9265347,61.3356404 52.9265347,60.5036803 C52.9265347,59.7819136 53.0688878,59.189633 53.3535985,58.7268208 C53.6383091,58.2640085 54.0188572,57.897621 54.4952542,57.6276472 C54.9716513,57.3576734 55.5058281,57.1551961 56.0978007,57.0202092 C56.6897733,56.8852223 57.2930125,56.7819175 57.9075365,56.7102918 C58.6855577,56.6221371 59.3155762,56.5491351 59.7976111,56.4912836 C60.2796459,56.433432 60.6320053,56.3383917 60.8546997,56.2061596 C61.0773942,56.0739275 61.1887398,55.8590537 61.1887398,55.5615315 L61.1887398,55.5036803 C61.1887398,54.7819136 60.9815524,54.2226905 60.5671716,53.8259943 C60.1527908,53.4292981 59.5368666,53.230953 58.7193806,53.230953 C57.8680676,53.230953 57.1985848,53.4127694 56.7109121,53.7764075 C56.2232394,54.1400457 55.8863839,54.5477551 55.7003353,54.999548 L53.324,54.4706224 C53.7468376,53.3135918 54.4529658,52.484399 55.4424057,51.9830191 C56.4318457,51.4816392 57.5128842,51.230953 58.6855538,51.230953 C59.2042345,51.230953 59.7539151,51.2901811 60.3346121,51.4086389 C60.915309,51.5270968 61.4635802,51.7447255 61.9794421,52.0615315 C62.4953039,52.3783375 62.9153163,52.8259914 63.2394918,53.4045067 C63.5636673,53.983022 63.7257526,54.7350806 63.7257526,55.6607051 L63.7257526,64.0904571 L61.2563934,64.0904571 L61.2563934,62.3549199 L61.1549129,62.3549199 C60.912486,62.8287515 60.4811982,63.2832924 59.8610364,63.7185563 C59.2408746,64.1538202 58.3923932,64.3714489 57.3155668,64.3714489 Z M57.865253,62.3879778 C58.5699823,62.3879778 59.1704026,62.2529929 59.6665321,61.9830191 C60.1626615,61.7130453 60.5418002,61.3590544 60.8039595,60.9210356 C61.0661188,60.4830169 61.1971965,60.0133246 61.1971965,59.5119447 L61.1971965,57.8755811 C61.0788019,57.9912842 60.8194654,58.0932115 60.4191792,58.1813662 C60.0188929,58.2695209 59.5960617,58.3439004 59.1506728,58.4045067 C58.7052839,58.4651131 58.3444679,58.5146994 58.068214,58.553267 C57.3352955,58.6469314 56.7080958,58.8356348 56.1865961,59.1193827 C55.6650964,59.4031307 55.4043505,59.8755778 55.4043505,60.5367381 C55.4043505,61.1483114 55.6354983,61.6097393 56.0978007,61.9210356 C56.5601031,62.232332 57.149248,62.3879778 57.865253,62.3879778 Z M71.8009629,64.3466555 C70.5437258,64.3466555 69.4626873,64.0670439 68.5578149,63.5078125 C67.6529424,62.9485811 66.9580897,62.1758615 66.473236,61.1896307 C65.9883822,60.2033999 65.745959,59.0739346 65.745959,57.8012009 C65.745959,56.5064286 65.99402,55.3659442 66.4901494,54.3797133 C66.9862788,53.3934825 67.6867693,52.6221404 68.5916417,52.0656637 C69.4965141,51.5091871 70.5578205,51.230953 71.7755928,51.230953 C72.7622138,51.230953 73.6417028,51.4086372 74.4140861,51.7640108 C75.1864694,52.1193845 75.8108502,52.6166247 76.2872473,53.2557464 C76.7636443,53.894868 77.0469412,54.641417 77.1371466,55.4954158 L74.6762441,55.4954158 C74.5409361,54.9003715 74.2322693,54.3879799 73.7502344,53.9582257 C73.2681996,53.5284715 72.6240867,53.3135976 71.8178763,53.3135976 C70.7636013,53.3135976 69.9137105,53.7116653 69.2681784,54.5078125 C68.6226464,55.3039597 68.2998852,56.3824613 68.2998852,57.7433497 C68.2998852,59.1262767 68.6184181,60.2240619 69.2554934,61.0367381 C69.8925687,61.8494144 70.7466878,62.2557464 71.8178763,62.2557464 C72.5395191,62.2557464 73.1568528,62.0629108 73.6698957,61.677234 C74.1829386,61.2915571 74.5183848,60.7571272 74.6762441,60.0739282 L77.1371466,60.0739282 C77.0469412,60.8948689 76.7735103,61.627644 76.3168457,62.2722753 C75.8601812,62.9169066 75.2498947,63.4237886 74.4859682,63.7929365 C73.7220416,64.1620843 72.8270488,64.3466555 71.8009629,64.3466555 Z M79.0896993,64.0904571 L79.0896993,47.1648373 L81.6182554,47.1648373 L81.6182554,56.7681431 L81.8381298,56.7681431 L87.013636,51.3962423 L90.041138,51.3962423 L84.7810647,56.8425232 L90.3963198,64.0904571 L87.2927074,64.0904571 L82.8783051,58.3549199 L81.6182554,59.5863249 L81.6182554,64.0904571 L79.0896993,64.0904571 Z M101.988574,64.338391 C100.939937,64.338391 100.006889,64.0766856 99.1894033,63.553267 C98.3719173,63.0298485 97.7292138,62.2764125 97.2612735,61.2929365 C96.7933333,60.3094605 96.5593666,59.1345411 96.5593666,57.7681431 C96.5593666,56.3962354 96.7947427,55.2226934 97.2655019,54.2474819 C97.736261,53.2722704 98.3831928,52.5257214 99.2063167,52.0078125 C100.029441,51.4899036 100.962488,51.230953 102.005487,51.230953 C102.811698,51.230953 103.461448,51.3618057 103.954759,51.623515 C104.44807,51.8852243 104.831437,52.1896289 105.104871,52.5367381 C105.378306,52.8838473 105.591132,53.1896294 105.743353,53.4540935 L105.895574,53.4540935 L105.895574,47.1648373 L108.42413,47.1648373 L108.42413,64.0904571 L105.954771,64.0904571 L105.954771,62.1152505 L105.743353,62.1152505 C105.591132,62.3852243 105.372669,62.6937612 105.087958,63.0408704 C104.803247,63.3879795 104.412833,63.6910068 103.916704,63.9499613 C103.420574,64.2089157 102.777871,64.338391 101.988574,64.338391 Z M102.546717,62.230953 C103.640457,62.230953 104.479072,61.8163566 105.062588,60.9871513 C105.646104,60.1579461 105.937857,59.0766897 105.937857,57.7433497 C105.937857,56.4155194 105.648923,55.3480369 105.071045,54.5408704 C104.493167,53.7337038 103.651732,53.3301265 102.546717,53.3301265 C101.785609,53.3301265 101.151362,53.5229621 100.643957,53.9086389 C100.136552,54.2943158 99.7545946,54.8191039 99.4980732,55.4830191 C99.2415517,56.1469343 99.1132929,56.9003703 99.1132929,57.7433497 C99.1132929,58.5918388 99.2429611,59.3549165 99.5023015,60.0326059 C99.7616419,60.7102952 100.146418,61.2461025 100.656642,61.6400439 C101.166866,62.0339853 101.796885,62.230953 102.546717,62.230953 Z M116.862979,64.3466555 C115.588828,64.3466555 114.489467,64.0766857 113.564862,63.5367381 C112.640257,62.9967905 111.928491,62.2378449 111.429543,61.2598786 C110.930595,60.2819123 110.681124,59.1372956 110.681124,57.8259943 C110.681124,56.5257123 110.930595,55.3797183 111.429543,54.3879778 C111.928491,53.3962373 112.627572,52.6221404 113.526807,52.0656637 C114.426042,51.5091871 115.478891,51.230953 116.685388,51.230953 C117.666371,51.230953 118.59519,51.4444495 119.471874,51.8714489 C120.348557,52.2984482 121.061732,52.9788822 121.611421,53.9127712 C122.16111,54.8466601 122.43595,56.0794302 122.43595,57.6111183 L122.43595,58.4871513 L113.201224,58.4871513 C113.235051,59.710298 113.58741,60.6524373 114.258312,61.3135976 C114.929215,61.974758 115.805885,62.3053332 116.888349,62.3053332 C117.609992,62.3053332 118.232963,62.1538195 118.757282,61.8507877 C119.2816,61.5477559 119.656511,61.0959698 119.882024,60.4954158 L122.275273,60.9169034 C121.987743,61.9472116 121.367591,62.7764044 120.414797,63.4045067 C119.462003,64.032609 118.278075,64.3466555 116.862979,64.3466555 Z M113.20968,56.6359117 L119.958134,56.6359117 C119.952497,55.6662099 119.653696,54.8631876 119.061723,54.2268208 C118.469751,53.5904539 117.683285,53.2722753 116.702301,53.2722753 C116.020123,53.2722753 115.423931,53.4279211 114.913707,53.7392175 C114.403483,54.0505138 114.000384,54.460978 113.704398,54.9706224 C113.408412,55.4802668 113.243507,56.0353577 113.20968,56.6359117 Z M135.534446,51.3962423 L130.824059,64.0904571 L128.117912,64.0904571 L123.399068,51.3962423 L126.113672,51.3962423 L129.403332,61.1648373 L129.538639,61.1648373 L132.819842,51.3962423 L135.534446,51.3962423 Z" id="fullstackdev" fill="#009BFF"></path>
                </g>
            </g>
        </g>
    </g>
</svg>
